<?xml version="1.0" encoding="utf-8"?>
<!-- Generator: Adobe Illustrator 25.4.1, SVG Export Plug-In . SVG Version: 6.00 Build 0)  -->
<svg version="1.1"
	 id="svg8489" xmlns:cc="http://creativecommons.org/ns#" xmlns:dc="http://purl.org/dc/elements/1.1/" xmlns:rdf="http://www.w3.org/1999/02/22-rdf-syntax-ns#" xmlns:svg="http://www.w3.org/2000/svg"
	 xmlns="http://www.w3.org/2000/svg" xmlns:xlink="http://www.w3.org/1999/xlink" x="0px" y="0px" viewBox="0 0 300 300"
	 style="enable-background:new 0 0 300 300;" xml:space="preserve">
<style type="text/css">
	.st0{clip-path:url(#SVGID_00000019640214219604509330000011399137909605527682_);}
	.st1{fill:#FFFFFF;}
	.st2{clip-path:url(#SVGID_00000176746708316318912910000002895092797300965262_);}
</style>
<g id="layer1" transform="translate(-348.90869,-258.47922)">
	<g id="g8264" transform="matrix(7.1863011,0,0,7.1863011,90.201851,-5256.8104)">
		<g>
			<defs>
				<polygon id="SVGID_1_" points="36,788.3 56.9,809.2 77.7,788.3 56.9,767.5 				"/>
			</defs>
			<clipPath id="SVGID_00000059295330423090851910000006020637927995337387_">
				<use xlink:href="#SVGID_1_"  style="overflow:visible;"/>
			</clipPath>
			<g id="g7014" style="clip-path:url(#SVGID_00000059295330423090851910000006020637927995337387_);">
				<path id="path7016" d="M36,809.2h41.7v-41.7H36V809.2z"/>
			</g>
		</g>
		<path id="path7018" class="st1" d="M69.7,788.3c0,7.1-5.7,12.8-12.8,12.8c-7.1,0-12.8-5.7-12.8-12.8c0-7.1,5.7-12.8,12.8-12.8
			C63.9,775.5,69.7,781.3,69.7,788.3"/>
		<g>
			<defs>
				<path id="SVGID_00000057125763263704818170000006252173677716400826_" d="M45.4,788.3c0,6.4,5.2,11.5,11.5,11.5
					c6.4,0,11.5-5.2,11.5-11.5c0-6.4-5.2-11.5-11.5-11.5C50.5,776.8,45.4,782,45.4,788.3"/>
			</defs>
			<clipPath id="SVGID_00000062894810664979848580000008990750875353919117_">
				<use xlink:href="#SVGID_00000057125763263704818170000006252173677716400826_"  style="overflow:visible;"/>
			</clipPath>
			<g id="g7020" style="clip-path:url(#SVGID_00000062894810664979848580000008990750875353919117_);">
				<path id="path7022" d="M68.4,776.8h-23v23h23V776.8z"/>
			</g>
		</g>
		<path id="path7024" class="st1" d="M50.2,790.6c-0.1,0.1-0.2,0.2-0.3,0.3c-0.1,0.1-0.2,0.2-0.4,0.2c-0.2,0.1-0.3,0.1-0.5,0.2
			c-0.1,0-0.3,0.1-0.6,0.1c-0.5,0-0.9-0.2-1.2-0.5c-0.3-0.3-0.5-0.7-0.5-1.2c0-0.4,0.1-0.8,0.2-1c0.2-0.3,0.4-0.5,0.7-0.6
			c0.3-0.1,0.7-0.3,1.1-0.3c0.4-0.1,0.9-0.1,1.4-0.1v0c0-0.3-0.1-0.5-0.3-0.6c-0.2-0.1-0.6-0.2-1-0.2c-0.2,0-0.4,0-0.7,0.1
			c-0.3,0.1-0.5,0.2-0.8,0.3h-0.1v-1.3c0.2-0.1,0.4-0.1,0.8-0.2s0.8-0.1,1.2-0.1c1,0,1.6,0.2,2.1,0.5c0.4,0.3,0.7,0.8,0.7,1.5v3.8
			l-1.7,0V790.6z M50.2,789.7v-1.2c-0.3,0-0.5,0.1-0.7,0.1c-0.2,0-0.4,0.1-0.5,0.1c-0.2,0.1-0.3,0.1-0.3,0.2
			c-0.1,0.1-0.1,0.2-0.1,0.4c0,0.3,0.1,0.4,0.2,0.5c0.1,0.1,0.3,0.1,0.6,0.1c0.1,0,0.3,0,0.4-0.1C49.9,789.9,50,789.8,50.2,789.7"/>
		<path id="path7026" class="st1" d="M55.7,791.3c-0.5,0-0.9-0.1-1.3-0.2c-0.4-0.1-0.7-0.3-1-0.5c-0.3-0.2-0.5-0.5-0.7-0.9
			c-0.2-0.4-0.2-0.8-0.2-1.3c0-0.5,0.1-1,0.2-1.4c0.2-0.4,0.4-0.7,0.7-0.9c0.3-0.2,0.6-0.4,1-0.5c0.4-0.1,0.8-0.2,1.2-0.2
			c0.3,0,0.6,0,0.9,0.1c0.3,0.1,0.6,0.2,0.9,0.3v1.5h-0.2c-0.1-0.1-0.2-0.1-0.2-0.2c-0.1-0.1-0.2-0.2-0.3-0.2
			c-0.1-0.1-0.3-0.1-0.4-0.2c-0.2,0-0.3-0.1-0.5-0.1c-0.4,0-0.8,0.2-1,0.5c-0.2,0.3-0.4,0.7-0.4,1.2c0,0.6,0.1,1,0.4,1.2
			c0.3,0.3,0.6,0.4,1,0.4c0.2,0,0.4,0,0.6-0.1c0.2-0.1,0.3-0.1,0.4-0.2c0.1-0.1,0.2-0.1,0.3-0.2c0.1-0.1,0.2-0.1,0.2-0.2h0.2v1.5
			c-0.1,0-0.2,0.1-0.3,0.2c-0.1,0.1-0.3,0.1-0.4,0.1c-0.2,0.1-0.3,0.1-0.5,0.1C56.1,791.3,55.9,791.3,55.7,791.3"/>
		<path id="path7028" class="st1" d="M65,791.2v-2.8c0-0.3,0-0.5,0-0.7c0-0.2,0-0.3-0.1-0.5c0-0.1-0.1-0.2-0.2-0.3
			c-0.1-0.1-0.2-0.1-0.4-0.1c-0.1,0-0.3,0-0.4,0.1c-0.1,0.1-0.3,0.1-0.4,0.2v3.9h-1.7v-2.8c0-0.3,0-0.5,0-0.7c0-0.2,0-0.3-0.1-0.5
			c-0.1-0.1-0.1-0.2-0.2-0.3c-0.1-0.1-0.3-0.1-0.4-0.1c-0.1,0-0.3,0-0.4,0.1c-0.1,0.1-0.3,0.1-0.4,0.2v3.9h-1.7v-5.5h1.7v0.6
			c0.3-0.2,0.6-0.4,0.8-0.6c0.2-0.1,0.5-0.2,0.8-0.2c0.3,0,0.6,0.1,0.9,0.2c0.3,0.2,0.5,0.4,0.6,0.7c0.3-0.3,0.6-0.5,0.9-0.7
			c0.3-0.2,0.6-0.2,0.9-0.2c0.3,0,0.5,0,0.7,0.1c0.2,0.1,0.4,0.2,0.5,0.4c0.2,0.2,0.3,0.4,0.3,0.6c0.1,0.2,0.1,0.6,0.1,1l0,3.6H65z"
			/>
	</g>
</g>
</svg>
