<?xml version="1.0" encoding="utf-8"?>
<!-- Generator: Adobe Illustrator 25.4.1, SVG Export Plug-In . SVG Version: 6.00 Build 0)  -->
<svg version="1.1"
	 id="svg8489" xmlns:cc="http://creativecommons.org/ns#" xmlns:dc="http://purl.org/dc/elements/1.1/" xmlns:rdf="http://www.w3.org/1999/02/22-rdf-syntax-ns#" xmlns:svg="http://www.w3.org/2000/svg"
	 xmlns="http://www.w3.org/2000/svg" xmlns:xlink="http://www.w3.org/1999/xlink" x="0px" y="0px" viewBox="0 0 300 300"
	 style="enable-background:new 0 0 300 300;" xml:space="preserve">
<style type="text/css">
	.st0{fill:#008D4E;}
</style>
<g>
	<path class="st0" d="M268.2,94H31.8c-4,0-7.3-3.3-7.3-7.3V69.3c0-4,3.3-7.3,7.3-7.3h236.4c4,0,7.3,3.3,7.3,7.3v17.4
		C275.5,90.7,272.2,94,268.2,94z"/>
	<path class="st0" d="M268.2,166H31.8c-4,0-7.3-3.3-7.3-7.3v-17.4c0-4,3.3-7.3,7.3-7.3h236.4c4,0,7.3,3.3,7.3,7.3v17.4
		C275.5,162.7,272.2,166,268.2,166z"/>
	<path class="st0" d="M268.2,238H31.8c-4,0-7.3-3.3-7.3-7.3v-17.4c0-4,3.3-7.3,7.3-7.3h236.4c4,0,7.3,3.3,7.3,7.3v17.4
		C275.5,234.7,272.2,238,268.2,238z"/>
</g>
</svg>
