<?xml version="1.0" encoding="utf-8"?>
<!-- Generator: Adobe Illustrator 25.4.1, SVG Export Plug-In . SVG Version: 6.00 Build 0)  -->
<svg version="1.1"
	 id="svg8489" xmlns:cc="http://creativecommons.org/ns#" xmlns:dc="http://purl.org/dc/elements/1.1/" xmlns:rdf="http://www.w3.org/1999/02/22-rdf-syntax-ns#" xmlns:svg="http://www.w3.org/2000/svg"
	 xmlns="http://www.w3.org/2000/svg" xmlns:xlink="http://www.w3.org/1999/xlink" x="0px" y="0px" viewBox="0 0 300 300"
	 style="enable-background:new 0 0 300 300;" xml:space="preserve">
<style type="text/css">
	.st0{fill:none;stroke:#000000;stroke-width:1.5832;stroke-miterlimit:10;}
	.st1{fill:none;stroke:#000000;stroke-width:2.2751;stroke-miterlimit:10;}
</style>
<path d="M98.2,209.6l25.2-4h5.2l-17.4,54.8c0,0-1,6.9,3.8,3.1c4.8-3.8,8.2-10.1,8.2-10.1l2.7,1.5c0,0-9.9,20.5-23.8,19.8
	c0,0-16.3-0.1-7.2-20.3l10.9-35.1c0,0,2.7-7.4-7.8-6.9L98.2,209.6z"/>
<circle cx="122.8" cy="183" r="10.6"/>
<path d="M140.1,212.3l0.6-2.5l25.8-4.2h3.7l-9.3,31c0,0,20.6-35.9,33.8-31s5.1,20,2,31c0,0,20.3-35.5,36.3-30.7
	c14.8,4.4-0.4,38-0.4,38s-10.6,26.7-1.4,17.3c0,0,5.3-5.2,6-7.3l3,1.9c0,0-10,18.7-23.8,17.3c-13.9-1.4-7.8-13.6-0.5-35.5
	c0,0,10.8-24.7-0.1-17.9c0,0-23.3,17.9-29.6,52.7l-19,0.1l13.6-44.4c0,0,5.7-16.7-5.6-5.1c-11.3,11.6-23.9,37.5-24.9,49.5h-18.7
	l16.2-52.8C147.7,219.7,151.4,212,140.1,212.3z"/>
<path d="M245.4,274.7h2.7c0,0,2.3-3.9,7.3-2.5c5,1.5,15.9,5.1,27.5-1c11.6-6.1,14.6-24.7,4.6-33c0,0-16-15.6-15.5-19.8
	c0.5-4.2,2.8-11.3,12.7-8c9.9,3.3,10.1,16.8,10.1,16.8l2.4,0.4l2.9-22.5h-2c0,0-0.4,5.4-11.4,1.5c-1.5-0.5-3-0.8-4.5-0.9
	c-6.3-0.5-20.4-0.4-24.5,10.2c-5.2,13.7,0.9,19,15.1,34.7s-0.8,20.4-2.9,20.6c-1.5,0.1-12.6,2.8-18.4-20.5l-2.9-0.1L245.4,274.7z"/>
<path class="st0" d="M269.8,235.8C158.6,239.9,82.5,31,53,31C20,30.9,2.1,244.7,2.1,244.7"/>
<path class="st0" d="M268.1,205.5C203.2,195.1,136,91.3,100.1,86c-36.6-5.4-67.4,102.6-71,108.9c-3.2,5.6-25.4,48.3-25.4,48.3
	c2.3,0,25.7-10.9,60.6-52.7s68.5-77.6,97.5-66.4s97,62.2,105.4,58.9"/>
<path class="st0" d="M268.1,165.8c-2.5,0.8-49.1-26-49.1-26s-37.7-15.3-64.6,10.9s-55.7,54.7-84.7,72.8S3.7,243.2,3.7,243.2
	s57.9-0.3,88.5-13.5s39.5-8.9,93.7-51.1s44.9-39.3,81.4-26.6"/>
<rect x="2.3" y="24.6" class="st1" width="267.6" height="218.6"/>
</svg>
