<?xml version="1.0" encoding="utf-8"?>
<!-- Generator: Adobe Illustrator 25.4.1, SVG Export Plug-In . SVG Version: 6.00 Build 0)  -->
<svg version="1.1" id="Layer_1" xmlns="http://www.w3.org/2000/svg" xmlns:xlink="http://www.w3.org/1999/xlink" x="0px" y="0px"
	 viewBox="0 0 390 180" style="enable-background:new 0 0 390 180;" xml:space="preserve">
<style type="text/css">
	.st0{fill:#EAEBE4;}
	.st1{fill:#008D4E;}
	.st2{fill:#3C4043;}
</style>
<g>
	<polygon class="st0" points="0.4,59.6 0.4,119.4 60.2,59.6 	"/>
	<polygon class="st0" points="0.4,119.4 0.4,179.2 60.2,119.4 	"/>
	<polygon class="st1" points="60.2,-0.1 60.2,59.6 119.9,-0.1 	"/>
	<polygon class="st0" points="60.2,59.6 60.2,119.4 119.9,59.6 	"/>
	<polygon class="st2" points="119.9,-0.1 179.7,59.6 179.7,-0.1 	"/>
	<polygon class="st1" points="119.9,59.6 179.7,119.4 179.7,59.6 	"/>
	
		<circle id="_x36_865688529652455_00000045584806229643945520000001113027056313530041_" class="st2" cx="149.8" cy="149.3" r="14.5"/>
	<polygon class="st0" points="210.3,59.6 210.3,119.4 270.1,59.6 	"/>
	<polygon class="st0" points="210.3,119.4 210.3,179.2 270.1,119.4 	"/>
	<polygon class="st1" points="270.1,-0.1 270.1,59.6 329.8,-0.1 	"/>
	<polygon class="st0" points="270.1,59.6 270.1,119.4 329.8,59.6 	"/>
	<polygon class="st2" points="329.8,-0.1 389.6,59.6 389.6,-0.1 	"/>
	<polygon class="st1" points="329.8,59.6 389.6,119.4 389.6,59.6 	"/>
	
		<circle id="_x36_865688529652455_00000029014491240281974440000011070452206801622190_" class="st2" cx="359.7" cy="149.3" r="20.7"/>
</g>
</svg>
