<?xml version="1.0" encoding="utf-8"?>
<!-- Generator: Adobe Illustrator 25.4.1, SVG Export Plug-In . SVG Version: 6.00 Build 0)  -->
<svg version="1.0" id="Layer_1" xmlns="http://www.w3.org/2000/svg" xmlns:xlink="http://www.w3.org/1999/xlink" x="0px" y="0px"
	 viewBox="0 0 358.6 195.9" enable-background="new 0 0 358.6 195.9" xml:space="preserve">
<g opacity="0.9">
	<path d="M0.1,155.9l12.9-22.6c5.4,5.2,12.4,10,22,10c13.1,0,21.6-8.7,21.6-22.2V28.5H86v92.9c0,32.8-20.3,47.9-48.8,47.9
		C23.3,169.4,10,165.7,0.1,155.9z"/>
	<path d="M109.2,166.9V28.5h54.6c43.4,0,73.4,27.6,73.4,69.3c0,41.7-30.1,69.1-73.4,69.1H109.2z M207.1,97.8
		c0-24.5-14.9-43.4-43.4-43.4h-25.1V141h25.1C191.2,141,207.1,121.3,207.1,97.8z"/>
	<path d="M244.7,147.4l16-22.4c9.8,10.2,24.9,18.7,44,18.7c16.2,0,24.1-7.5,24.1-15.4c0-24.5-79.7-7.7-79.7-59.8
		c0-23,19.9-42.1,52.5-42.1c22,0,40.2,6.6,53.9,19.3l-16.4,21.6C327.9,57,313,52.2,298.8,52.2c-12.7,0-19.7,5.6-19.7,13.9
		c0,22,79.5,7.3,79.5,58.9c0,25.3-18.1,44.4-55.4,44.4C276.6,169.4,257.6,160.5,244.7,147.4z"/>
</g>
</svg>
