<?xml version="1.0" encoding="utf-8"?>
<!-- Generator: Adobe Illustrator 25.4.1, SVG Export Plug-In . SVG Version: 6.00 Build 0)  -->
<svg version="1.1" id="Layer_1" xmlns="http://www.w3.org/2000/svg" xmlns:xlink="http://www.w3.org/1999/xlink" x="0px" y="0px"
	 viewBox="0 0 390 180" style="enable-background:new 0 0 390 180;" xml:space="preserve">
<style type="text/css">
	.st0{fill:#3C4043;}
	.st1{fill:#EAEBE4;}
	.st2{fill:#008D4E;}
</style>
<circle id="_x32_341361843636095_00000146469311590800819250000001722696971383393723_" class="st0" cx="359.5" cy="153" r="25.9"/>
<polygon class="st1" points="329.6,-0.3 269.9,-0.3 329.6,59.4 "/>
<polygon class="st1" points="269.9,-0.3 210.1,-0.3 269.9,59.4 "/>
<polygon class="st1" points="329.6,59.4 269.9,59.4 329.6,119.2 "/>
<circle id="_x36_419008410341963_00000181081857641480653510000012466416220323950742_" class="st1" cx="240" cy="89.3" r="24.9"/>
<polygon class="st0" points="389.4,-0.4 329.6,-0.4 389.4,59.4 "/>
<circle id="_x36_865688529652455_00000029003650362827666630000005258966164082004139_" class="st0" cx="240" cy="149.1" r="20.7"/>
<circle id="_x32_341361843636095_00000091004614052861298500000001953654616292176557_" class="st0" cx="150" cy="153" r="16.8"/>
<polygon class="st1" points="120.1,-0.3 60.3,-0.3 120.1,59.4 "/>
<polygon class="st1" points="60.3,-0.3 0.6,-0.3 60.3,59.4 "/>
<polygon class="st2" points="179.9,63.4 120.1,123.1 179.9,123.1 "/>
<polygon class="st1" points="120.1,59.4 60.3,59.4 120.1,119.2 "/>
<circle id="_x36_419008410341963_00000042013184111592657580000014137723044919209384_" class="st1" cx="30.5" cy="89.3" r="24.9"/>
<polygon class="st0" points="179.9,-0.4 120.1,-0.4 179.9,59.4 "/>
<polygon class="st2" points="120.1,119.2 60.3,179 120.1,179 "/>
<circle id="_x36_865688529652455_00000092451630636579957210000005839244049262622118_" class="st0" cx="30.5" cy="149.1" r="20.7"/>
</svg>
